<?xml version="1.0" encoding="UTF-8" standalone="no"?>
<!DOCTYPE svg PUBLIC "-//W3C//DTD SVG 1.1//EN" "http://www.w3.org/Graphics/SVG/1.1/DTD/svg11.dtd">
<svg xmlns="http://www.w3.org/2000/svg" version="1.1" viewBox="0.00 0.00 281.00 251.00">
<g stroke-width="2.00" fill="none" stroke-linecap="butt">
<path stroke="#f1f337" vector-effect="non-scaling-stroke" d="
  M 142.02 55.16
  Q 142.04 55.80 141.73 55.99
  Q 115.57 72.08 106.25 101.75"
/>
<path stroke="#aaaa2a" vector-effect="non-scaling-stroke" d="
  M 106.25 101.75
  L 102.64 101.56
  Q 102.00 101.52 102.00 102.16
  L 102.00 152.15
  Q 101.99 152.92 102.77 152.93
  L 108.21 152.97"
/>
<path stroke="#f1f337" vector-effect="non-scaling-stroke" d="
  M 108.21 152.97
  Q 118.28 178.89 142.40 193.44"
/>
<path stroke="#9b9e61" vector-effect="non-scaling-stroke" d="
  M 180.09 107.48
  Q 171.06 99.57 159.95 100.82
  C 128.25 104.37 131.58 155.82 166.34 154.12
  Q 172.37 153.83 177.20 151.67"
/>
<path stroke="#9b9e61" vector-effect="non-scaling-stroke" d="
  M 108.21 152.97
  Q 109.33 153.16 110.25 152.94
  Q 110.77 152.82 110.77 152.28
  Q 110.70 135.80 110.81 119.31
  C 110.87 110.64 120.61 100.89 128.11 110.60
  A 0.39 0.39 0.0 0 0 128.76 110.55
  L 131.65 105.11
  A 0.83 0.83 0.0 0 0 131.54 104.17
  C 124.88 96.64 114.67 101.31 111.58 109.42
  A 0.43 0.43 0.0 0 1 110.75 109.27
  L 110.75 102.45
  Q 110.75 101.79 110.08 101.78
  L 106.25 101.75"
/>
<path stroke="#9b9e61" vector-effect="non-scaling-stroke" d="
  M 181.93 129.52
  L 148.50 129.53
  Q 148.01 129.53 147.99 130.02
  C 147.39 147.48 164.75 155.86 178.51 145.85"
/>
<path stroke="#d4e399" vector-effect="non-scaling-stroke" d="
  M 143.37 193.71
  Q 143.52 192.83 143.71 192.72
  Q 167.35 178.04 177.20 151.67"
/>
<path stroke="#8d9a8d" vector-effect="non-scaling-stroke" d="
  M 177.20 151.67
  Q 182.05 149.45 185.95 145.76
  Q 186.43 145.31 185.96 144.84
  L 183.56 142.44
  Q 183.18 142.05 182.76 142.40
  L 178.51 145.85"
/>
<path stroke="#d4e399" vector-effect="non-scaling-stroke" d="
  M 178.51 145.85
  C 180.53 140.40 181.08 135.22 181.93 129.52"
/>
<path stroke="#8d9a8d" vector-effect="non-scaling-stroke" d="
  M 181.93 129.52
  L 186.23 129.45
  Q 186.74 129.44 186.78 128.92
  Q 187.57 116.60 180.09 107.48"
/>
<path stroke="#d4e399" vector-effect="non-scaling-stroke" d="
  M 180.09 107.48
  C 180.38 105.63 179.06 102.95 178.63 101.56
  Q 169.50 72.34 143.68 56.32
  Q 143.16 56.00 142.95 55.48"
/>
<path stroke="#8d9a8d" vector-effect="non-scaling-stroke" d="
  M 196.25 94.63
  A 0.38 0.38 0.0 0 1 196.63 94.25
  L 206.87 94.25
  A 0.38 0.38 0.0 0 0 207.25 93.87
  L 207.25 90.88
  A 0.38 0.38 0.0 0 0 206.87 90.50
  L 196.63 90.50
  A 0.38 0.38 0.0 0 1 196.25 90.12
  L 196.25 79.63
  A 0.38 0.38 0.0 0 0 195.87 79.25
  L 192.58 79.25
  A 0.38 0.38 0.0 0 0 192.20 79.64
  L 192.40 90.11
  A 0.38 0.38 0.0 0 1 192.02 90.50
  L 181.88 90.50
  A 0.38 0.38 0.0 0 0 181.50 90.88
  L 181.50 93.87
  A 0.38 0.38 0.0 0 0 181.88 94.25
  L 192.12 94.25
  A 0.38 0.38 0.0 0 1 192.50 94.63
  L 192.50 105.12
  A 0.38 0.38 0.0 0 0 192.88 105.50
  L 195.87 105.50
  A 0.38 0.38 0.0 0 0 196.25 105.12
  L 196.25 94.63"
/>
<path stroke="#9b9e61" vector-effect="non-scaling-stroke" d="
  M 148.53 125.50
  L 177.39 125.50
  A 0.56 0.56 0.0 0 0 177.95 124.94
  L 177.95 123.47
  A 19.25 14.12 90.0 0 0 163.83 104.22
  L 162.09 104.22
  A 19.25 14.12 90.0 0 0 147.97 123.47
  L 147.97 124.94
  A 0.56 0.56 0.0 0 0 148.53 125.50"
/>
</g>
<path fill="#ffff00" d="
  M 142.02 55.16
  Q 142.04 55.80 141.73 55.99
  Q 115.57 72.08 106.25 101.75
  L 102.64 101.56
  Q 102.00 101.52 102.00 102.16
  L 102.00 152.15
  Q 101.99 152.92 102.77 152.93
  L 108.21 152.97
  Q 118.28 178.89 142.40 193.44
  C 106.15 213.71 61.44 203.94 37.95 169.55
  C 5.91 122.66 32.23 57.50 87.50 46.49
  Q 115.75 40.87 142.02 55.16
  Z"
/>
<path fill="#c6dfc5" d="
  M 143.37 193.71
  Q 143.52 192.83 143.71 192.72
  Q 167.35 178.04 177.20 151.67
  Q 182.05 149.45 185.95 145.76
  Q 186.43 145.31 185.96 144.84
  L 183.56 142.44
  Q 183.18 142.05 182.76 142.40
  L 178.51 145.85
  C 180.53 140.40 181.08 135.22 181.93 129.52
  L 186.23 129.45
  Q 186.74 129.44 186.78 128.92
  Q 187.57 116.60 180.09 107.48
  C 180.38 105.63 179.06 102.95 178.63 101.56
  Q 169.50 72.34 143.68 56.32
  Q 143.16 56.00 142.95 55.48
  Q 143.40 55.00 144.11 54.62
  C 197.53 26.41 262.41 64.95 261.27 125.78
  C 260.17 184.57 195.47 223.74 143.37 193.71
  Z
  M 196.25 94.63
  A 0.38 0.38 0.0 0 1 196.63 94.25
  L 206.87 94.25
  A 0.38 0.38 0.0 0 0 207.25 93.87
  L 207.25 90.88
  A 0.38 0.38 0.0 0 0 206.87 90.50
  L 196.63 90.50
  A 0.38 0.38 0.0 0 1 196.25 90.12
  L 196.25 79.63
  A 0.38 0.38 0.0 0 0 195.87 79.25
  L 192.58 79.25
  A 0.38 0.38 0.0 0 0 192.20 79.64
  L 192.40 90.11
  A 0.38 0.38 0.0 0 1 192.02 90.50
  L 181.88 90.50
  A 0.38 0.38 0.0 0 0 181.50 90.88
  L 181.50 93.87
  A 0.38 0.38 0.0 0 0 181.88 94.25
  L 192.12 94.25
  A 0.38 0.38 0.0 0 1 192.50 94.63
  L 192.50 105.12
  A 0.38 0.38 0.0 0 0 192.88 105.50
  L 195.87 105.50
  A 0.38 0.38 0.0 0 0 196.25 105.12
  L 196.25 94.63
  Z"
/>
<path fill="#e2e76d" d="
  M 142.02 55.16
  Q 142.60 55.50 142.95 55.48
  Q 143.16 56.00 143.68 56.32
  Q 169.50 72.34 178.63 101.56
  C 179.06 102.95 180.38 105.63 180.09 107.48
  Q 171.06 99.57 159.95 100.82
  C 128.25 104.37 131.58 155.82 166.34 154.12
  Q 172.37 153.83 177.20 151.67
  Q 167.35 178.04 143.71 192.72
  Q 143.52 192.83 143.37 193.71
  Q 143.22 193.17 142.40 193.44
  Q 118.28 178.89 108.21 152.97
  Q 109.33 153.16 110.25 152.94
  Q 110.77 152.82 110.77 152.28
  Q 110.70 135.80 110.81 119.31
  C 110.87 110.64 120.61 100.89 128.11 110.60
  A 0.39 0.39 0.0 0 0 128.76 110.55
  L 131.65 105.11
  A 0.83 0.83 0.0 0 0 131.54 104.17
  C 124.88 96.64 114.67 101.31 111.58 109.42
  A 0.43 0.43 0.0 0 1 110.75 109.27
  L 110.75 102.45
  Q 110.75 101.79 110.08 101.78
  L 106.25 101.75
  Q 115.57 72.08 141.73 55.99
  Q 142.04 55.80 142.02 55.16
  Z"
/>
<path fill="#545454" d="
  M 196.25 94.63
  L 196.25 105.12
  A 0.38 0.38 0.0 0 1 195.87 105.50
  L 192.88 105.50
  A 0.38 0.38 0.0 0 1 192.50 105.12
  L 192.50 94.63
  A 0.38 0.38 0.0 0 0 192.12 94.25
  L 181.88 94.25
  A 0.38 0.38 0.0 0 1 181.50 93.87
  L 181.50 90.88
  A 0.38 0.38 0.0 0 1 181.88 90.50
  L 192.02 90.50
  A 0.38 0.38 0.0 0 0 192.40 90.11
  L 192.20 79.64
  A 0.38 0.38 0.0 0 1 192.58 79.25
  L 195.87 79.25
  A 0.38 0.38 0.0 0 1 196.25 79.63
  L 196.25 90.12
  A 0.38 0.38 0.0 0 0 196.63 90.50
  L 206.87 90.50
  A 0.38 0.38 0.0 0 1 207.25 90.88
  L 207.25 93.87
  A 0.38 0.38 0.0 0 1 206.87 94.25
  L 196.63 94.25
  A 0.38 0.38 0.0 0 0 196.25 94.63
  Z"
/>
<path fill="#545454" d="
  M 108.21 152.97
  L 102.77 152.93
  Q 101.99 152.92 102.00 152.15
  L 102.00 102.16
  Q 102.00 101.52 102.64 101.56
  L 106.25 101.75
  L 110.08 101.78
  Q 110.75 101.79 110.75 102.45
  L 110.75 109.27
  A 0.43 0.43 0.0 0 0 111.58 109.42
  C 114.67 101.31 124.88 96.64 131.54 104.17
  A 0.83 0.83 0.0 0 1 131.65 105.11
  L 128.76 110.55
  A 0.39 0.39 0.0 0 1 128.11 110.60
  C 120.61 100.89 110.87 110.64 110.81 119.31
  Q 110.70 135.80 110.77 152.28
  Q 110.77 152.82 110.25 152.94
  Q 109.33 153.16 108.21 152.97
  Z"
/>
<path fill="#545454" d="
  M 180.09 107.48
  Q 187.57 116.60 186.78 128.92
  Q 186.74 129.44 186.23 129.45
  L 181.93 129.52
  L 148.50 129.53
  Q 148.01 129.53 147.99 130.02
  C 147.39 147.48 164.75 155.86 178.51 145.85
  L 182.76 142.40
  Q 183.18 142.05 183.56 142.44
  L 185.96 144.84
  Q 186.43 145.31 185.95 145.76
  Q 182.05 149.45 177.20 151.67
  Q 172.37 153.83 166.34 154.12
  C 131.58 155.82 128.25 104.37 159.95 100.82
  Q 171.06 99.57 180.09 107.48
  Z
  M 148.53 125.50
  L 177.39 125.50
  A 0.56 0.56 0.0 0 0 177.95 124.94
  L 177.95 123.47
  A 19.25 14.12 90.0 0 0 163.83 104.22
  L 162.09 104.22
  A 19.25 14.12 90.0 0 0 147.97 123.47
  L 147.97 124.94
  A 0.56 0.56 0.0 0 0 148.53 125.50
  Z"
/>
<path fill="#e2e76d" d="
  M 148.53 125.50
  A 0.56 0.56 0.0 0 1 147.97 124.94
  L 147.97 123.47
  A 19.25 14.12 -90.0 0 1 162.09 104.22
  L 163.83 104.22
  A 19.25 14.12 90.0 0 1 177.95 123.47
  L 177.95 124.94
  A 0.56 0.56 0.0 0 1 177.39 125.50
  L 148.53 125.50
  Z"
/>
<path fill="#e2e76d" d="
  M 181.93 129.52
  C 181.08 135.22 180.53 140.40 178.51 145.85
  C 164.75 155.86 147.39 147.48 147.99 130.02
  Q 148.01 129.53 148.50 129.53
  L 181.93 129.52
  Z"
/>
</svg>
